<?xml version="1.0" encoding="UTF-8"?>
<!DOCTYPE svg PUBLIC "-//W3C//DTD SVG 1.1//EN" "http://www.w3.org/Graphics/SVG/1.1/DTD/svg11.dtd">
<!-- Creator: CorelDRAW X7 -->
<svg xmlns="http://www.w3.org/2000/svg" xml:space="preserve" width="37.3719mm" height="18.6502mm" version="1.1" style="shape-rendering:geometricPrecision; text-rendering:geometricPrecision; image-rendering:optimizeQuality; fill-rule:evenodd; clip-rule:evenodd"
viewBox="0 0 3737 1865"
 xmlns:xlink="http://www.w3.org/1999/xlink">
 <defs>
  <style type="text/css">
   <![CDATA[
    .fil0 {fill:white}
   ]]>
  </style>
 </defs>
 <g id="Layer_x0020_1">
  <metadata id="CorelCorpID_0Corel-Layer"/>
  <g id="_2271863632464">
   <path class="fil0" d="M435 575c7,-22 14,-47 21,-74 7,-27 15,-55 23,-83 9,-28 18,-55 27,-81 10,-26 20,-49 30,-70 3,-5 8,-9 13,-11 6,-2 12,-3 18,-3 3,0 7,1 13,3 6,2 13,5 20,8 6,3 13,6 18,9 6,3 8,6 8,9l0 6c-34,73 -61,138 -81,196 -21,57 -35,106 -44,145 -9,40 -12,70 -9,90 2,21 9,31 20,31 14,0 31,-16 51,-49 20,-34 43,-80 69,-141 27,-60 57,-133 90,-218 34,-84 71,-179 113,-282 2,-7 6,-11 12,-12 5,-2 12,-3 19,-3 2,0 7,2 15,5 9,3 17,6 26,11 8,5 16,9 23,14 7,5 10,9 10,12l-1 4c-17,38 -36,82 -57,132 -21,49 -43,100 -67,153 -23,52 -47,103 -71,153 -24,50 -49,95 -74,133 -9,14 -19,29 -30,43 -11,15 -23,28 -36,39 -13,12 -28,21 -44,28 -17,8 -34,11 -54,11 -16,0 -29,-3 -41,-9 -11,-6 -21,-13 -28,-23 -8,-10 -14,-22 -18,-35 -4,-13 -6,-27 -6,-41 -8,11 -17,23 -26,36 -9,13 -19,25 -30,36 -11,11 -22,20 -35,27 -13,7 -27,11 -43,11 -13,0 -25,-3 -37,-7 -11,-5 -21,-12 -30,-20 -8,-8 -15,-18 -19,-29 -5,-12 -6,-24 -4,-36 6,-33 15,-71 29,-113 14,-42 29,-85 46,-130 17,-45 33,-88 50,-131 16,-43 30,-81 40,-115 11,-34 17,-61 19,-81 1,-21 -5,-31 -18,-31 -24,0 -48,7 -71,22 -23,15 -46,35 -67,59 -22,24 -42,51 -60,81 -19,30 -35,60 -50,89 -15,30 -27,58 -36,84 -10,27 -16,49 -19,66 -3,18 -2,29 2,34 4,4 13,0 26,-14 13,-13 31,-38 54,-73 22,-35 50,-83 84,-146 3,-6 8,-10 13,-12 6,-2 12,-2 18,-2 2,0 6,1 10,3 5,2 10,5 15,8 4,3 8,6 12,10 3,4 5,7 5,11 0,9 -4,21 -11,37 -7,16 -16,33 -28,52 -12,18 -25,37 -40,57 -15,19 -30,37 -46,53 -16,16 -31,28 -47,38 -15,10 -28,15 -40,15 -26,0 -45,-8 -59,-23 -13,-16 -20,-36 -20,-60 0,-22 5,-48 16,-77 10,-30 24,-60 41,-92 18,-31 38,-62 61,-93 23,-31 47,-59 72,-84 25,-25 51,-46 76,-63 25,-17 50,-27 73,-30 24,-4 46,-2 64,5 18,6 33,16 44,28 11,13 19,28 23,45 4,16 4,33 1,50 -5,24 -13,54 -26,91 -12,37 -26,76 -41,118 -16,42 -31,84 -47,125 -16,42 -29,81 -41,115 -11,34 -19,62 -23,84 -5,21 -3,32 4,33 7,0 22,-12 44,-36 22,-25 54,-67 94,-125zm791 -39c0,0 4,-1 11,-2 8,-1 18,-4 29,-9 12,-6 24,-14 38,-25 14,-10 28,-26 41,-45l25 0c-7,17 -17,33 -30,47 -13,14 -26,26 -41,36 -15,11 -30,19 -45,25 -16,5 -29,9 -42,9 -14,23 -29,41 -44,54 -16,14 -32,24 -47,31 -16,7 -31,10 -47,10 -15,1 -29,-1 -42,-5 -30,-8 -52,-25 -66,-48 -14,-24 -21,-50 -21,-80 0,-21 3,-42 8,-65 6,-23 13,-45 24,-66 10,-21 22,-41 37,-60 15,-18 31,-34 49,-47 19,-12 39,-21 61,-27 22,-5 45,-4 71,2 20,5 36,13 47,24 11,12 18,25 23,40 4,15 5,32 4,50 -1,19 -4,37 -9,55 -5,18 -10,36 -17,52 -6,17 -12,32 -17,44zm-125 -175c-1,-2 -5,3 -12,12 -6,9 -14,22 -22,37 -9,16 -17,33 -25,53 -8,19 -15,39 -19,58 -5,19 -6,37 -5,53 1,17 7,29 18,38 9,8 19,11 29,8 9,-3 19,-9 27,-17 9,-8 17,-18 25,-29 7,-11 13,-21 17,-30 -9,0 -17,-6 -25,-16 -9,-11 -15,-24 -19,-41 -4,-17 -6,-36 -5,-58 1,-22 7,-45 16,-68zm48 145c7,-17 14,-36 20,-57 7,-21 12,-41 15,-59 4,-19 4,-34 3,-47 -1,-12 -6,-19 -14,-19 -9,0 -17,5 -23,14 -6,9 -11,20 -15,34 -4,13 -6,28 -8,43 -1,16 -1,31 0,44 1,14 3,25 7,34 4,9 9,13 15,13zm601 -28c-14,32 -30,61 -48,87 -7,11 -15,21 -24,32 -10,10 -19,19 -30,27 -10,8 -21,15 -33,20 -11,5 -23,8 -36,8 -12,0 -22,-2 -32,-4 -10,-3 -18,-7 -25,-13 -7,-5 -13,-13 -17,-21 -3,-9 -5,-20 -4,-32 1,-20 6,-42 13,-65 8,-24 16,-47 25,-70 9,-22 18,-43 25,-62 8,-20 12,-35 13,-47 1,-14 -5,-21 -17,-21 -12,0 -24,4 -35,11 -11,7 -21,15 -31,26 -9,11 -17,23 -24,36 -7,13 -13,26 -18,39 -7,21 -15,41 -21,58 -6,18 -12,35 -17,51 -6,16 -12,32 -18,47 -6,16 -12,32 -19,49 -3,6 -8,11 -15,13 -7,3 -15,4 -22,4 -4,0 -9,-1 -14,-1 -5,-1 -10,-3 -13,-7 -1,-1 -3,-3 -6,-6 -2,-2 -5,-5 -8,-9 -2,-3 -5,-6 -7,-9 -2,-3 -3,-5 -3,-7 9,-23 18,-46 27,-69 9,-23 18,-47 27,-72 10,-25 19,-51 30,-79 10,-28 21,-58 32,-90 1,-3 4,-6 9,-8 5,-3 11,-5 18,-6 6,-1 13,-2 20,-2 6,-1 12,-1 18,-1 2,0 6,0 10,1 3,0 7,1 11,3 4,1 7,3 9,6 2,2 4,6 4,10 0,2 -1,3 -1,4l-7 11 4 -4c12,-13 25,-22 39,-27 14,-5 31,-8 51,-8 6,0 13,1 21,3 9,1 17,4 25,9 7,4 14,11 20,20 5,8 8,20 7,34 -1,17 -5,38 -13,62 -8,23 -17,47 -26,72 -10,24 -18,46 -26,67 -8,22 -12,38 -13,50 -1,11 3,16 10,16 16,0 30,-5 43,-15 12,-10 24,-22 35,-36 11,-14 20,-29 29,-45 8,-16 16,-29 23,-40l25 0zm411 -4c-8,14 -17,30 -29,51 -11,20 -24,39 -39,57 -15,19 -31,35 -48,48 -17,13 -35,20 -54,20 -11,0 -22,-1 -33,-3 -11,-2 -20,-6 -28,-13 -8,-6 -15,-14 -20,-24 -5,-11 -7,-24 -6,-41 -11,16 -22,29 -31,40 -9,10 -18,18 -27,25 -8,6 -17,10 -25,12 -9,2 -18,3 -26,3 -25,0 -45,-8 -58,-25 -14,-17 -20,-38 -20,-63 0,-18 2,-38 7,-59 4,-21 11,-42 20,-62 8,-21 19,-41 31,-60 13,-19 27,-36 43,-51 16,-14 33,-26 52,-35 19,-8 39,-13 60,-13 7,0 15,1 23,3 8,2 17,6 28,14 10,-21 20,-43 30,-65 11,-23 21,-45 31,-66 9,-21 18,-39 26,-56 8,-17 14,-30 18,-39 5,-6 12,-10 20,-13 9,-3 18,-4 27,-4 9,1 18,2 27,6 9,3 16,7 23,13 -11,29 -24,62 -39,98 -14,37 -30,75 -45,113 -13,33 -26,65 -38,97 -12,32 -23,62 -33,90 -10,27 -17,52 -23,73 -6,21 -9,38 -9,50 0,13 4,19 11,19 9,0 26,-11 48,-32 23,-21 50,-57 80,-108l26 0zm-343 131c11,0 21,-2 29,-7 9,-6 17,-12 24,-19 7,-7 13,-15 19,-22 5,-8 10,-15 14,-21 1,-8 3,-17 5,-26 3,-9 6,-20 10,-32 4,-12 9,-26 14,-42 6,-17 12,-36 20,-58 1,-4 2,-8 2,-12 1,-4 1,-8 1,-13 0,-8 -2,-15 -6,-20 -4,-6 -11,-9 -21,-9l-6 0c-6,0 -12,5 -21,14 -8,10 -16,22 -25,37 -9,14 -18,31 -28,50 -9,18 -17,37 -24,56 -7,19 -13,37 -18,54 -4,17 -6,31 -6,43 0,18 5,27 17,27zm974 -130c-18,34 -36,63 -55,86 -18,22 -35,40 -52,54 -17,13 -33,23 -47,28 -14,6 -26,9 -36,9 -13,0 -24,-3 -33,-8 -9,-4 -17,-10 -22,-18 -6,-7 -10,-15 -12,-24 -2,-9 -3,-17 -3,-25 0,-14 2,-29 6,-44 5,-16 10,-31 16,-45 6,-14 12,-28 19,-41 7,-13 13,-24 17,-34 5,-10 8,-18 10,-25 1,-6 -1,-11 -6,-12l-62 -33c-19,40 -38,79 -59,116 -21,37 -43,70 -66,98 -23,28 -48,51 -74,68 -26,17 -54,25 -84,25 -20,0 -38,-4 -53,-11 -15,-8 -28,-18 -38,-30 -10,-13 -17,-27 -22,-44 -5,-17 -8,-34 -8,-52 0,-37 7,-70 20,-99 14,-29 30,-53 50,-73 20,-20 42,-35 65,-46 23,-10 44,-15 63,-15 8,0 17,2 28,6 10,4 21,10 31,19 10,8 18,18 25,31 7,12 11,26 11,43 0,20 -4,37 -11,51 -7,15 -16,26 -27,36 -12,9 -24,15 -38,20 -13,5 -26,7 -39,7 -16,0 -30,-2 -43,-7 -13,-4 -23,-9 -29,-16 -6,16 -10,30 -13,43 -3,13 -4,24 -4,34 0,22 5,38 15,47 9,10 21,14 33,14 16,0 32,-3 49,-10 17,-6 36,-20 55,-39 20,-20 41,-48 64,-84 23,-36 49,-83 77,-142 -15,-6 -26,-14 -35,-25 -8,-10 -11,-23 -9,-37 3,-13 9,-23 18,-33 9,-9 22,-14 39,-14 8,0 15,2 20,7 6,5 9,10 11,17 2,7 2,15 2,23 -1,9 -2,17 -4,25 10,5 20,8 29,10 10,1 24,6 43,13 7,2 15,5 23,8 8,3 15,6 22,9 6,4 11,9 15,14 4,5 6,12 6,20 0,10 -2,23 -8,38 -5,15 -11,32 -18,49 -7,18 -15,35 -22,52 -8,18 -15,33 -20,48 -5,14 -7,25 -8,34 0,9 3,13 10,13 7,0 16,-2 27,-7 10,-5 22,-12 35,-23 12,-10 25,-24 39,-40 14,-16 28,-36 42,-59l25 0zm-450 -163c-12,0 -23,5 -34,16 -10,10 -20,22 -28,37 -9,14 -17,29 -23,44 -7,15 -12,27 -15,37 1,1 3,3 6,4 4,3 10,4 19,4 8,0 18,-4 31,-12 12,-8 25,-24 39,-49 13,-25 20,-45 20,-61 0,-13 -5,-20 -15,-20zm180 -24c2,-3 3,-7 3,-13 1,-6 1,-11 0,-15 -1,-5 -2,-8 -5,-11 -2,-2 -5,-2 -10,2 -4,3 -7,7 -8,12 -1,4 -1,8 0,12 2,3 5,7 8,9 4,3 8,4 12,4zm254 -6l64 0c14,-39 30,-72 48,-100 17,-27 35,-49 53,-65 18,-16 37,-28 55,-35 19,-7 36,-10 53,-8 16,1 31,6 44,14 13,9 24,20 32,34 4,6 6,15 6,25 0,10 -2,19 -4,29 -2,9 -4,17 -7,23 -2,7 -4,10 -5,10 0,0 -4,0 -12,0 -9,1 -18,1 -28,1 -11,0 -24,1 -39,1 10,-18 17,-33 23,-48 5,-12 8,-24 9,-35 1,-11 -3,-17 -11,-20 -8,-2 -16,0 -25,7 -8,6 -16,15 -25,27 -8,11 -15,24 -23,39 -7,14 -14,28 -20,42 -6,14 -11,26 -15,37 -4,11 -7,18 -9,22l167 0 -1 23 -137 0 0 2 -18 0c11,40 16,81 17,122 1,42 -2,81 -9,120 -7,38 -17,74 -29,107 -13,34 -28,63 -45,88 -17,25 -35,45 -55,59 -20,15 -40,22 -60,22 -16,0 -28,-6 -37,-18 -9,-12 -15,-27 -19,-45 -3,-18 -4,-38 -4,-61 1,-22 3,-44 7,-66 1,-8 4,-20 9,-35 4,-16 10,-34 17,-53 6,-20 13,-41 21,-64 7,-22 15,-44 23,-66 8,-21 16,-41 23,-60 7,-20 14,-36 19,-50l-53 0 0 -25zm146 31c0,0 -2,6 -8,20 -5,13 -12,31 -20,54 -8,22 -17,47 -27,76 -10,28 -21,58 -31,88 -10,30 -20,59 -29,87 -9,29 -16,55 -22,77 -5,23 -9,41 -10,55 -1,14 1,20 6,20 23,0 43,-10 61,-29 18,-20 33,-45 46,-76 13,-31 23,-65 31,-102 9,-38 14,-74 17,-109 3,-36 3,-68 1,-97 -3,-29 -8,-50 -15,-64zm567 161c-24,41 -45,73 -63,97 -19,23 -36,41 -50,53 -14,11 -27,19 -38,22 -11,3 -21,4 -29,4 -17,0 -32,-5 -45,-15 -14,-10 -22,-25 -26,-44 -4,7 -9,14 -16,21 -7,7 -13,14 -21,20 -7,5 -14,10 -22,14 -7,4 -13,6 -19,6 -30,0 -52,-8 -65,-23 -14,-15 -22,-34 -24,-57 -2,-23 0,-48 6,-76 6,-28 14,-55 22,-81 9,-25 18,-49 27,-70 9,-21 15,-36 18,-45 1,-5 5,-9 9,-11 5,-3 10,-4 17,-5 6,-2 13,-2 20,-2 7,0 14,0 20,0 5,1 11,3 17,6 7,3 10,7 10,13 0,2 0,4 0,5 -5,13 -11,29 -19,49 -7,20 -14,41 -22,62 -8,22 -15,45 -22,67 -6,22 -11,43 -15,60 -3,18 -5,32 -4,43 1,12 5,17 12,17 14,0 27,-6 39,-18 12,-12 24,-29 36,-50 9,-42 21,-84 33,-124 13,-41 30,-80 51,-116 4,-4 8,-7 13,-8l8 -3c5,-1 12,-1 20,-1 12,0 22,1 31,3 9,2 13,7 13,16 0,1 0,3 -1,4 0,1 -1,2 -2,4 -7,17 -15,37 -23,60 -8,22 -17,44 -25,67 -8,22 -15,44 -22,65 -6,22 -11,41 -14,57 -3,16 -4,29 -3,40 2,10 7,16 15,16 16,0 34,-13 53,-39 20,-26 45,-60 75,-103l25 0zm-80 -163c-1,1 -1,1 -1,1l0 0 1 -1zm40 186c8,-39 20,-80 36,-124 16,-44 33,-88 51,-131 18,-43 37,-85 55,-124 19,-39 35,-73 50,-102 5,-5 12,-10 20,-12 8,-3 17,-4 26,-4 9,0 18,2 27,5 9,3 17,8 23,14 -14,34 -30,72 -49,114 -19,42 -37,85 -56,129 -18,44 -36,88 -52,131 -17,44 -30,83 -40,119 -2,11 -3,21 -5,31 -1,11 -3,21 -4,32 0,6 1,11 2,17 2,6 3,8 4,8 5,6 10,8 16,8 8,0 17,-3 26,-10 9,-7 18,-16 27,-26 10,-11 18,-22 27,-33 9,-12 16,-23 23,-33 6,-10 12,-18 16,-24 3,-6 5,-8 5,-7l26 0c0,1 -6,10 -17,28 -12,18 -28,41 -47,67 -6,9 -13,18 -21,28 -7,9 -16,17 -25,25 -9,7 -18,14 -28,19 -11,5 -21,7 -33,7 -13,0 -25,-1 -37,-5 -12,-3 -22,-8 -31,-14 -9,-7 -15,-15 -20,-25 -5,-10 -8,-22 -7,-35 0,-12 2,-24 4,-36 2,-13 5,-25 8,-37z"/>
   <path class="fil0" d="M826 1419c-30,4 -59,11 -87,19 -28,9 -54,16 -79,20 -24,5 -47,6 -67,2 -21,-4 -39,-16 -53,-36 14,5 33,6 56,2 23,-3 47,-9 74,-18 26,-8 53,-17 82,-28 28,-11 55,-21 82,-29 26,-9 51,-16 73,-21 22,-5 40,-5 55,-2 14,4 23,13 28,27 4,15 1,36 -8,66l-50 -11c-3,10 -8,25 -16,44 -8,20 -18,41 -30,63 -12,22 -25,45 -40,69 -14,23 -29,45 -44,64 -14,19 -29,35 -43,47 -14,11 -27,17 -39,17 -5,0 -11,-1 -18,-3 -7,-3 -11,-7 -12,-14l77 -113c-16,17 -33,33 -51,49 -18,16 -37,31 -57,44 -21,12 -42,23 -64,30 -22,8 -46,12 -71,12 -26,0 -50,-3 -72,-8 -22,-6 -40,-15 -56,-29 -15,-13 -27,-31 -36,-53 -9,-22 -13,-50 -13,-83 0,-50 7,-98 20,-145 13,-47 31,-92 54,-133 24,-41 51,-79 83,-114 31,-34 66,-64 103,-89 37,-25 75,-44 116,-58 41,-14 81,-21 122,-21 45,0 82,6 111,16 29,11 53,25 71,41 18,17 30,35 38,54 8,20 12,38 12,55 1,25 -2,47 -9,64 -7,18 -17,32 -29,43 -12,10 -25,18 -40,21 -16,3 -31,3 -45,0 12,-34 19,-63 22,-88 2,-25 2,-46 -2,-64 -4,-18 -11,-33 -21,-45 -9,-12 -20,-21 -32,-28 -12,-6 -25,-11 -39,-14 -13,-2 -26,-4 -38,-4 -33,0 -66,10 -100,28 -34,18 -67,43 -99,73 -32,30 -62,65 -90,104 -28,39 -53,78 -73,118 -21,40 -37,80 -49,119 -11,38 -16,73 -15,103 1,30 10,55 26,73 15,19 40,28 74,28 12,0 28,-5 49,-16 22,-11 46,-27 73,-49 27,-22 57,-49 89,-83 32,-33 64,-72 97,-116zm539 -1c-8,18 -19,38 -33,58 -14,20 -29,39 -45,56 -17,17 -34,31 -51,43 -17,11 -33,17 -48,17 -6,0 -15,-1 -26,-2 -10,-1 -21,-4 -31,-10 -10,-6 -19,-15 -26,-27 -8,-12 -11,-30 -11,-52 0,-42 6,-84 19,-128 13,-44 30,-88 50,-134 0,0 3,-1 7,-2 5,0 9,-1 14,-2 5,-1 10,-1 15,-2 5,0 8,-1 9,-2 3,-1 7,-2 10,-2 3,-1 7,-2 11,-2 2,0 5,1 8,1 4,1 8,2 11,3 4,1 7,3 10,6 3,2 4,5 4,10 0,1 0,3 -1,4 0,1 -1,3 -2,5l0 -2c-16,38 -30,73 -40,105 -11,32 -21,65 -29,99 -7,25 -10,44 -10,57 0,13 2,22 7,28 5,5 11,8 20,8 9,0 20,-5 33,-14 13,-9 26,-20 39,-34 13,-13 25,-27 36,-43 11,-15 19,-30 25,-42l25 0zm-138 -297c4,-7 9,-11 16,-13 6,-3 13,-4 20,-4 3,0 7,0 13,1 6,0 12,1 18,3 6,2 12,4 16,6 5,3 7,6 7,10 0,2 0,3 -1,4 -4,7 -8,14 -12,22 -3,7 -8,14 -13,21 -5,6 -10,11 -17,15 -7,4 -15,6 -24,6 -3,0 -7,0 -12,-1 -6,-1 -11,-2 -17,-4 -6,-1 -11,-3 -15,-6 -5,-2 -7,-5 -7,-9 0,-3 1,-6 3,-11 3,-4 6,-9 9,-14 3,-5 6,-10 9,-15 3,-4 6,-8 7,-11zm557 296c-8,17 -18,35 -33,55 -14,21 -30,39 -48,57 -18,18 -37,33 -56,45 -19,12 -37,19 -53,19 -28,0 -47,-8 -58,-23 -11,-16 -16,-36 -16,-62l0 -9c-3,7 -8,15 -16,25 -7,10 -16,20 -26,30 -11,10 -22,19 -34,26 -13,7 -25,11 -38,11 -12,0 -23,-4 -32,-11 -9,-7 -17,-16 -23,-27 -7,-11 -11,-24 -14,-38 -4,-14 -5,-27 -5,-41 0,-19 2,-40 7,-60 5,-21 11,-42 19,-61 8,-20 18,-38 28,-55 10,-16 21,-31 32,-42 16,-18 34,-30 53,-39 19,-8 38,-12 56,-12 18,0 34,5 48,14 14,9 22,22 26,39 3,-6 7,-11 12,-17 4,-5 14,-7 28,-7 8,0 18,3 29,8 11,5 21,17 30,35 -9,13 -16,27 -22,40 -6,11 -14,25 -24,44 -9,19 -19,38 -29,59 -10,20 -19,40 -26,59 -7,20 -10,36 -10,48 0,9 2,16 6,20 4,3 8,5 14,5 8,0 16,-3 26,-9 10,-5 20,-13 31,-22 10,-8 21,-18 31,-29 10,-11 20,-22 28,-32 9,-9 16,-18 22,-26 6,-8 10,-14 12,-17l25 0zm-358 130c11,0 23,-5 34,-16 12,-12 23,-25 33,-40 11,-15 19,-29 27,-44 7,-15 12,-25 15,-32 4,-18 9,-36 16,-53 6,-18 13,-35 21,-51 -9,0 -13,-4 -13,-12 0,-5 1,-9 2,-14 2,-5 3,-9 3,-13 0,-4 -1,-7 -3,-10 -2,-2 -6,-3 -12,-3 -8,0 -17,5 -27,15 -9,10 -19,23 -29,39 -11,16 -21,34 -30,54 -9,20 -18,40 -25,60 -7,19 -13,38 -17,56 -4,17 -7,32 -7,43 0,14 4,21 12,21zm275 -271c0,0 0,0 0,0 0,0 -1,1 -1,1 0,0 1,-1 1,-1zm462 142c-15,33 -31,62 -48,88 -8,10 -16,21 -25,31 -9,11 -19,20 -30,28 -10,8 -21,15 -33,20 -11,5 -23,7 -36,7 -11,0 -22,-1 -32,-4 -9,-2 -18,-6 -25,-12 -7,-6 -12,-13 -16,-22 -4,-9 -6,-19 -5,-31 1,-20 6,-42 13,-66 8,-24 16,-47 26,-69 9,-23 17,-43 25,-63 7,-19 11,-34 12,-46 1,-14 -5,-21 -17,-21 -12,0 -24,3 -35,10 -11,7 -21,16 -30,27 -9,11 -18,22 -25,36 -7,13 -13,26 -17,38 -8,22 -15,41 -22,59 -6,18 -12,34 -17,50 -6,17 -12,32 -18,48 -6,15 -12,32 -19,49 -2,6 -7,11 -15,13 -7,2 -14,4 -22,4 -4,0 -9,-1 -14,-2 -5,0 -9,-3 -12,-6 -1,-2 -3,-3 -6,-6 -3,-3 -6,-6 -9,-9 -2,-3 -5,-6 -7,-9 -2,-3 -3,-5 -3,-7 9,-23 18,-46 27,-69 9,-23 18,-47 27,-72 10,-25 20,-51 30,-79 10,-28 21,-58 33,-90 1,-4 4,-6 9,-9 5,-2 10,-4 17,-5 6,-1 13,-2 20,-2 7,-1 13,-1 18,-1 3,0 6,0 10,1 4,0 8,1 11,2 4,2 7,4 9,6 3,3 4,7 4,11 0,1 -1,3 -1,4l-6 11 3 -4c12,-13 25,-22 39,-28 14,-5 31,-7 51,-7 6,0 13,1 21,2 9,2 17,5 25,9 8,5 14,12 20,20 5,9 8,20 7,35 -1,17 -5,37 -13,61 -8,24 -17,48 -26,72 -9,24 -18,47 -26,68 -8,21 -12,38 -13,50 -1,10 3,16 11,16 15,0 30,-5 42,-15 13,-10 24,-22 35,-36 11,-14 20,-29 29,-45 8,-16 16,-29 23,-41l26 0zm131 -186c-11,30 -22,59 -32,87 -10,28 -19,54 -27,78 -7,24 -14,46 -18,65 -5,20 -7,37 -7,49 0,13 1,23 4,30 3,8 7,11 14,11 2,0 7,-1 12,-3 6,-1 13,-6 22,-13 8,-7 18,-17 29,-31 11,-13 23,-32 37,-55 13,-23 28,-52 44,-87 15,-35 32,-77 50,-126 0,-8 6,-15 16,-18 10,-3 21,-5 33,-4 12,0 23,2 33,6 10,4 15,8 15,14 -21,60 -39,111 -54,153 -15,42 -28,77 -38,105 -11,28 -19,51 -26,67 -6,17 -12,29 -15,38 14,-4 31,-11 50,-22 19,-11 39,-24 60,-38 20,-15 40,-30 59,-45 19,-16 35,-31 48,-45l27 0 -1 1c-17,25 -36,48 -55,66 -19,18 -39,35 -61,50 -21,14 -44,28 -69,41 -24,13 -50,28 -79,42 -16,42 -33,77 -51,105 -17,28 -35,50 -53,66 -18,17 -37,29 -56,36 -19,7 -39,10 -59,10 -25,0 -46,-5 -62,-14 -16,-10 -26,-23 -31,-38 -5,-16 -4,-33 2,-52 6,-19 19,-38 37,-56 19,-19 44,-36 74,-53 31,-16 70,-28 115,-38 4,-9 8,-20 12,-33 4,-13 8,-24 11,-33 -14,17 -26,29 -37,34 -10,5 -20,8 -29,8 -15,0 -29,-2 -43,-6 -13,-3 -25,-11 -35,-22 -2,-2 -5,-6 -9,-11 -4,-5 -8,-12 -11,-20 -4,-8 -7,-18 -10,-30 -3,-13 -4,-27 -4,-43 0,-26 4,-57 13,-94 9,-37 26,-82 50,-134 4,-7 10,-11 21,-14 11,-2 22,-4 34,-3 12,0 23,2 33,5 9,4 15,8 17,14zm-21 417c0,0 -3,1 -10,3 -7,3 -15,5 -26,9 -11,3 -23,8 -36,14 -13,6 -26,13 -38,20 -12,8 -24,17 -34,27 -11,10 -19,22 -24,34 -6,15 -7,30 -3,45 4,14 12,25 22,31 11,6 23,6 37,1 14,-6 28,-22 42,-47 13,-25 24,-46 33,-63 9,-17 17,-31 22,-42 6,-11 9,-19 12,-24 2,-5 3,-7 3,-8zm1086 -233c-18,34 -36,63 -54,85 -19,23 -36,41 -53,54 -17,14 -32,23 -47,29 -14,6 -26,8 -36,8 -13,0 -24,-2 -33,-7 -9,-5 -17,-11 -22,-18 -6,-7 -9,-15 -12,-24 -2,-9 -3,-17 -3,-25 0,-15 2,-30 6,-45 5,-15 10,-30 16,-44 6,-15 12,-28 19,-41 7,-13 13,-24 18,-34 4,-10 7,-18 9,-25 1,-7 -1,-11 -6,-13l-62 -32c-19,39 -38,77 -57,114 -19,37 -38,70 -58,99 -19,28 -40,51 -61,68 -21,17 -42,26 -65,26 -27,0 -46,-8 -57,-24 -11,-15 -17,-36 -17,-61l0 -9c-2,6 -8,15 -15,25 -8,10 -17,20 -27,30 -10,10 -21,18 -34,26 -12,7 -24,10 -37,10 -13,0 -23,-3 -33,-10 -9,-7 -16,-16 -23,-27 -6,-12 -11,-24 -14,-38 -3,-14 -5,-28 -5,-41 0,-20 3,-40 7,-61 5,-21 12,-41 20,-60 8,-20 17,-38 28,-55 10,-17 21,-31 32,-43 16,-17 34,-30 53,-38 19,-8 38,-12 55,-12 19,0 35,4 49,13 14,9 22,22 25,40 4,-6 8,-12 12,-17 5,-5 14,-8 29,-8 8,0 17,3 28,8 11,6 22,18 31,36 -9,13 -17,26 -23,40 -6,11 -13,25 -23,44 -10,19 -20,38 -29,59 -10,20 -19,40 -26,59 -7,20 -11,36 -11,49 0,9 2,15 6,19 4,4 9,6 15,6 8,0 18,-5 31,-15 13,-10 29,-26 46,-48 18,-22 37,-50 58,-85 22,-35 44,-78 68,-129 -15,-6 -26,-14 -35,-25 -8,-11 -11,-23 -9,-38 3,-12 9,-23 18,-32 9,-9 22,-14 39,-14 8,0 15,2 20,7 6,4 9,10 11,17 2,7 2,15 2,23 -1,9 -2,17 -4,25 10,4 20,7 30,9 9,2 23,7 42,14 7,2 15,5 23,8 8,2 15,5 22,9 6,4 12,8 15,14 4,5 6,12 6,20 0,10 -2,23 -7,38 -6,15 -12,31 -19,49 -7,17 -14,35 -22,52 -8,17 -15,33 -20,47 -5,14 -7,26 -8,35 0,9 3,13 10,13 7,0 16,-2 27,-7 10,-5 22,-13 35,-23 12,-10 25,-24 39,-40 14,-16 28,-36 42,-59l25 0zm-668 130c11,0 22,-6 34,-17 12,-11 23,-24 33,-39 10,-15 19,-30 26,-45 8,-15 13,-25 15,-32 4,-18 10,-36 16,-54 7,-17 14,-34 22,-51 -9,0 -13,-4 -13,-12 0,-4 0,-8 2,-13 1,-5 2,-10 2,-14 0,-4 -1,-7 -3,-9 -1,-2 -5,-4 -11,-4 -8,0 -17,5 -27,16 -10,10 -20,23 -30,39 -10,16 -20,34 -29,54 -10,20 -18,40 -25,60 -7,20 -13,38 -17,56 -5,18 -7,32 -7,43 0,15 4,22 12,22zm398 -317c2,-3 3,-8 3,-13 1,-6 1,-11 0,-15 -1,-5 -2,-8 -5,-11 -2,-2 -5,-2 -10,1 -4,4 -7,8 -8,12 -1,5 -1,9 1,12 1,4 4,7 7,10 4,3 8,4 12,4zm-123 44c0,1 0,1 -1,1 0,0 0,0 0,1 0,-1 0,-1 1,-2z"/>
  </g>
 </g>
</svg>
